<svg xmlns="http://www.w3.org/2000/svg" xmlns:xlink="http://www.w3.org/1999/xlink" viewBox="0 0 83 83"><defs><style>.cls-1{fill:none;}.cls-2{fill:#fff;}.cls-3{clip-path:url(#clip-path);}.cls-4{fill:url(#linear-gradient);}</style><clipPath id="clip-path" transform="translate(283 84)"><path class="cls-1" d="M-215.16-38.88a9.24,9.24,0,0,0-.06-1c-.58-5.38-3-9.62-7.58-11.37a14.23,14.23,0,0,0-5.14-.87,13,13,0,0,0-10.39,5c-.16.21-.31.43-.46.65V-51.3h-10.46v35.15h10.92V-34.87c0-4.23,1.63-7.66,6.34-7.66,4.93,0,6,3.43,6,7.66v18.72h10.93V-38.88Zm-52,22.73h10.93V-51.3h-10.93Zm5.59-52.7a6.37,6.37,0,0,0-6.37,6.36,6.37,6.37,0,0,0,6.37,6.37,6.37,6.37,0,0,0,6.37-6.37A6.37,6.37,0,0,0-261.53-68.85Z"/></clipPath><linearGradient id="linear-gradient" x1="66.91" y1="85.51" x2="16.09" y2="-2.51" gradientUnits="userSpaceOnUse"><stop offset="0" stop-color="#3d4bf4" stop-opacity="0.7"/><stop offset="1" stop-color="#0693f4" stop-opacity="0.7"/></linearGradient></defs><title>linkedin-icon-gradient2</title><g id="Layer_2" data-name="Layer 2"><g id="Layer_1-2" data-name="Layer 1"><rect class="cls-2" x="1.5" y="1.5" width="80" height="80" rx="16" ry="16"/><g class="cls-3"><rect class="cls-4" width="83" height="83" rx="16" ry="16"/></g></g></g></svg>
