<svg xmlns="http://www.w3.org/2000/svg" xmlns:xlink="http://www.w3.org/1999/xlink" viewBox="0 0 80 80"><defs><style>.cls-1{fill:#fff;}.cls-2{fill:url(#linear-gradient);}.cls-3{fill:url(#linear-gradient-2);}.cls-4{fill:url(#linear-gradient-3);}</style><linearGradient id="linear-gradient" x1="59.37" y1="70.41" x2="35.61" y2="29.26" gradientUnits="userSpaceOnUse"><stop offset="0" stop-color="#3d4bf4" stop-opacity="0.7"/><stop offset="1" stop-color="#0693f4" stop-opacity="0.7"/></linearGradient><linearGradient id="linear-gradient-2" x1="28.83" y1="64.33" x2="10.87" y2="33.23" xlink:href="#linear-gradient"/><linearGradient id="linear-gradient-3" x1="23.15" y1="25.53" x2="16.79" y2="14.5" xlink:href="#linear-gradient"/></defs><title>linkedin-icon-gradient_1</title><g id="Layer_2" data-name="Layer 2"><g id="Layer_1-2" data-name="Layer 1"><rect class="cls-1" width="80" height="80" rx="16" ry="16"/><path class="cls-2" d="M66.34,43.62a9.24,9.24,0,0,0-.06-1c-.58-5.38-3-9.62-7.58-11.37a14.23,14.23,0,0,0-5.14-.87,13,13,0,0,0-10.39,5c-.16.21-.31.43-.46.65V31.2H32.25V66.35H43.17V47.63c0-4.23,1.63-7.66,6.34-7.66,4.93,0,6,3.43,6,7.66V66.35H66.4V43.62Z"/><rect class="cls-3" x="14.38" y="31.2" width="10.93" height="35.15"/><path class="cls-4" d="M20,13.65A6.37,6.37,0,1,0,26.34,20,6.37,6.37,0,0,0,20,13.65Z"/></g></g></svg>