<svg xmlns="http://www.w3.org/2000/svg" xmlns:xlink="http://www.w3.org/1999/xlink" viewBox="0 0 80 80"><defs><style>.cls-1{fill:#fff;}.cls-2{fill:url(#linear-gradient);}.cls-3{fill:url(#linear-gradient-2);}.cls-4{fill:url(#linear-gradient-3);}.cls-5{fill:url(#linear-gradient-4);}.cls-6{fill:url(#linear-gradient-5);}</style><linearGradient id="linear-gradient" x1="22.02" y1="54.36" x2="78.44" y2="27.43" gradientUnits="userSpaceOnUse"><stop offset="0" stop-color="#3d4bf4" stop-opacity="0.7"/><stop offset="1" stop-color="#0693f4" stop-opacity="0.7"/></linearGradient><linearGradient id="linear-gradient-2" x1="8.57" y1="48.32" x2="73.06" y2="17.53" xlink:href="#linear-gradient"/><linearGradient id="linear-gradient-3" x1="23.48" y1="46.36" x2="35.76" y2="40.5" xlink:href="#linear-gradient"/><linearGradient id="linear-gradient-4" x1="19.59" y1="54.45" x2="25.23" y2="51.75" xlink:href="#linear-gradient"/><linearGradient id="linear-gradient-5" x1="21.61" y1="59.72" x2="26.08" y2="57.58" xlink:href="#linear-gradient"/></defs><title>mail-icon-gradient</title><g id="Layer_2" data-name="Layer 2"><g id="Layer_1-2" data-name="Layer 1"><rect class="cls-1" width="80" height="80" rx="16" ry="16"/><polygon class="cls-2" points="72.54 15.08 27.92 66.72 26.62 59.85 25.26 52.64 25.26 52.63 24.42 48.16 72.54 15.08"/><polygon class="cls-3" points="71.71 14.72 71.24 15.03 23.05 46.52 18.54 45.87 6.58 44.15 69.83 15.56 71.66 14.75 71.71 14.72"/><polygon class="cls-4" points="35.31 39.55 23.98 47.29 23.86 47.14 35.31 39.55"/><polygon class="cls-5" points="22.95 47.46 23.49 48.11 24.33 52.56 22.46 60.48 19.69 46.99 22.95 47.46"/><polygon class="cls-6" points="24.75 54.79 25.62 59.38 22.94 62.51 24.75 54.79"/></g></g></svg>