<svg xmlns="http://www.w3.org/2000/svg" xmlns:xlink="http://www.w3.org/1999/xlink" viewBox="0 0 80 80"><defs><style>.cls-1{fill:#fff;}.cls-2{fill:url(#linear-gradient);}</style><linearGradient id="linear-gradient" x1="58.19" y1="71.46" x2="25.54" y2="14.92" gradientUnits="userSpaceOnUse"><stop offset="0" stop-color="#3d4bf4" stop-opacity="0.7"/><stop offset="1" stop-color="#0693f4" stop-opacity="0.7"/></linearGradient></defs><title>meetup-icon-gradient</title><g id="Layer_2" data-name="Layer 2"><g id="Layer_1-2" data-name="Layer 1"><rect class="cls-1" width="80" height="80" rx="16" ry="16"/><path class="cls-2" d="M51,52.55c0-2.48,1.26-6,3.09-9.42,1.58-2.92,3.31-5.76,4.87-8.69a17.66,17.66,0,0,0,1.59-4,2.68,2.68,0,0,0-1.48-3.07,2.65,2.65,0,0,0-3.19.95,26,26,0,0,0-2.73,4.32c-2.6,5.43-5.08,10.93-7.63,16.38a21.78,21.78,0,0,1-4.39,6.44,4.63,4.63,0,0,1-4.82,1.17A2.93,2.93,0,0,1,34,53.11a39.39,39.39,0,0,1,1.73-5.7c1.4-3.81,3-7.55,4.34-11.36a12.09,12.09,0,0,0,.5-3.71,2.76,2.76,0,0,0-5.09-1.47,22.84,22.84,0,0,0-1.6,3.39c-2.15,5.32-4.32,10.62-6.35,16-.76,2-1.13,4.15-1.71,6.23a15.74,15.74,0,0,1-.78,2.18,5.82,5.82,0,0,1-4.54,3.63,12.38,12.38,0,0,1-7.4-.44,6.87,6.87,0,0,1-4.47-6.42A25.36,25.36,0,0,1,9.9,46.86c.77-2.59,1.38-5.23,2.27-7.78,2-5.64,4-11.26,6.21-16.84a14.85,14.85,0,0,1,2.51-3.87,8.24,8.24,0,0,1,9.54-2.79,33.17,33.17,0,0,1,5.1,2.27c2.72,1.43,4.48,1.3,6.78-.73.66-.57,1.27-1.2,1.95-1.74A5.58,5.58,0,0,1,51.08,15c.82.52,1.58,1.13,2.34,1.72a3.62,3.62,0,0,0,3.79.56,13.67,13.67,0,0,1,8.55-.44,5.89,5.89,0,0,1,4.64,5.81,20.17,20.17,0,0,1-1.92,9.19C66.71,36,64.73,40,62.91,44.14a26.22,26.22,0,0,0-2.49,8.58,8.73,8.73,0,0,0,.15,2.5,3.83,3.83,0,0,0,3.48,3c1.21.21,2.42.36,3.62.6a4.92,4.92,0,0,1,3.08,1.85,2.35,2.35,0,0,1-.19,3.39,6.56,6.56,0,0,1-4.07,1.83,16.62,16.62,0,0,1-10.7-2.58C52.54,61.31,51,58.14,51,52.55Z"/></g></g></svg>