<svg xmlns="http://www.w3.org/2000/svg" xmlns:xlink="http://www.w3.org/1999/xlink" viewBox="0 0 80 80"><defs><style>.cls-1{fill:#fff;}.cls-2{fill:url(#linear-gradient);}</style><linearGradient id="linear-gradient" x1="51.23" y1="58.31" x2="23.15" y2="9.68" gradientUnits="userSpaceOnUse"><stop offset="0" stop-color="#3d4bf4" stop-opacity="0.7"/><stop offset="1" stop-color="#0693f4" stop-opacity="0.7"/></linearGradient></defs><title>twitter-icon-gradient</title><g id="Layer_2" data-name="Layer 2"><g id="Layer_1-2" data-name="Layer 1"><rect class="cls-1" width="80" height="80" rx="16" ry="16"/><path class="cls-2" d="M71.54,19.41a17.62,17.62,0,0,1-6.75,2.12,17.8,17.8,0,0,0,5.32-6.78,17.63,17.63,0,0,1-6.49,3.09l-.5.11a17.55,17.55,0,0,1-1.79.28A13,13,0,0,0,51.68,14h-.21a13.76,13.76,0,0,0-1.71.13c-.42.07-.83.15-1.24.25l-.21.05a13.6,13.6,0,0,0-2.16.79,13.21,13.21,0,0,0-4.33,3.29A12.64,12.64,0,0,0,41,19.56c-.21.3-.41.6-.59.92l.1.17-.15-.08A13,13,0,0,0,38.66,27a13.45,13.45,0,0,0,.34,3h-.46c-.78,0-1.56,0-2.33-.08A31.91,31.91,0,0,1,16.9,21.53a32.35,32.35,0,0,1-4.77-5.48,12.9,12.9,0,0,0-1.91,6.7,12.71,12.71,0,0,0,1.07,5.08,15.41,15.41,0,0,0,4.65,5.88,34.81,34.81,0,0,1-5.72-1.08v0a13,13,0,0,0,5,9.91,18.89,18.89,0,0,0,4.59,2.84,36.31,36.31,0,0,1-4.81.34c.7,4.48,5.57,8.12,11.94,9.12A35.32,35.32,0,0,1,8.46,60.5,36.92,36.92,0,0,0,64.85,29.14c0-.65,0-1.3,0-1.94h0l0-.49A17.72,17.72,0,0,0,71.54,19.41Z"/></g></g></svg>