<svg xmlns="http://www.w3.org/2000/svg" xmlns:xlink="http://www.w3.org/1999/xlink" viewBox="0 0 1368.32 673.69" preserveAspectRatio="none"><defs><style>.cls-1{fill:#0693f4;}.cls-2{opacity:0.5;}.cls-3{fill:#056eb7;}.cls-4{opacity:0.6;}.cls-5{fill:#38a9f6;}.cls-6{fill:url(#linear-gradient);}</style><linearGradient id="linear-gradient" x1="801.58" y1="758.57" x2="617.15" y2="-287.34" gradientUnits="userSpaceOnUse"><stop offset="0.11" stop-color="#fff" stop-opacity="0.1"/><stop offset="1" stop-color="#b360f4" stop-opacity="0.6"/></linearGradient></defs><title>header-background</title><g id="Layer_2" data-name="Layer 2"><g id="Layer_1-2" data-name="Layer 1"><path class="cls-1" d="M1368.32,0l-1.15,616.6v6.75q-17.52,3.69-37.12,7.17l-6.27,1.1c-147.93,25.62-377.59,42.07-635.5,42.07q-55,0-108.23-1C407.34,669.56,251.91,659,131.66,643.42c-48.52-6.28-91.31-13.37-127.2-21.12-1.5-.32-3-.64-4.46-1V0Z"/><g class="cls-2"><path class="cls-3" d="M1368.32,0l-2,608.69c-33.82-9.8-63.44-18.45-88.34-25.34-86.41-23.91-163.43-40.44-231.76-51.48C926.2,512.46,833,510,762.77,514.12q-11.61.69-22.38,1.59h0c-80.76,6.77-126.94,21.93-145.84,25.91-17.09,3.6-290.66,65-462.88,101.8-48.52-6.28-91.31-13.37-127.2-21.12-1.5-.32-3-.64-4.46-1V0Z"/></g><g class="cls-4"><path class="cls-5" d="M1368.32,0l-1.15,616.6v6.75q-17.52,3.69-37.12,7.17a305.16,305.16,0,0,1-70.6-17.55l-213.23-81.1L981.1,507.1c-81.67-31.06-153.62-23.85-218.33,7q-5.85,2.79-11.62,5.84C688,553.28,631.75,608.9,580.05,672.71,407.34,669.56,251.91,659,131.66,643.42c-48.52-6.28-91.31-13.37-127.2-21.12-1.74-16.74-3.21-33.47-4.46-50V0Z"/></g><path class="cls-6" d="M1368.32,0l-2,616.69v7c-11.68,2.46-23.22,4.51-36.27,6.83l-6.27,1.1-167.94-6.7a1060,1060,0,0,1-220.3-32.15L751.15,520l-10.76-4.25h0L611.54,464.84a922,922,0,0,0-365.8-63.68l-31.63.94C105.44,370.84,25,287.06,0,185.34V0Z"/></g></g></svg>
