<svg xmlns="http://www.w3.org/2000/svg" viewBox="0 0 312.43 65.95"><title>footer-tag-logo</title><g id="Layer_2" data-name="Layer 2"><g id="Layer_1-2" data-name="Layer 1"><path d="M175.86,16.78Q174,22.41,172.15,28c-.56,1.66-1.17,3.3-1.61,5-.31,1.18-1.11,1-1.88,1s-1.42-.06-1.73-1c-1.58-5-3.25-10-4.89-15a2.69,2.69,0,0,0-.68-1.21V41.2h-5.72V.31c1.61,0,3.28-.09,5,.06.37,0,.8.8,1,1.33,2.19,6.21,4.33,12.43,6.49,18.64.16.49.34,1,.68,1.85.34-.83.53-1.29.71-1.79,2.17-6.27,4.36-12.52,6.46-18.79.34-1,.74-1.42,1.86-1.33,1.33.12,2.66,0,4.14,0V41.2h-5.63V16.82A.87.87,0,0,1,175.86,16.78Z"/><path d="M194.53.34c1.67,0,3.25-.09,4.82.06.44,0,1,.81,1.15,1.33,2.22,6.25,4.39,12.52,6.55,18.76.15.44.31.87.62,1.7.31-.8.52-1.26.71-1.76,2.16-6.27,4.36-12.52,6.46-18.79.34-1,.74-1.42,1.82-1.33,1.36.12,2.75,0,4.21,0v41h-5.69V16.88l-.31-.1c-.15.38-.34.75-.46,1.12-1.64,4.91-3.31,9.86-4.89,14.8-.31,1-.74,1.4-1.82,1.36s-1.61-.21-2-1.36c-1.51-4.91-3.18-9.76-4.79-14.65a2.61,2.61,0,0,0-.68-1.2V41.27h-5.78C194.53,27.63,194.53,14.06,194.53.34Z"/><path d="M114.69,41.36h-6.06c-1.14-3.68-2.32-7.39-3.46-11.1-.37-1.17-.71-2.35-1.08-3.52-1-3.12-1-3.12-4.49-2.88V41.3H93.82V.37c4.42.22,8.9-.59,13.29.62a7.75,7.75,0,0,1,5.41,5.29A18.57,18.57,0,0,1,113,16.75a8.1,8.1,0,0,1-3.68,5.32c-.84.5-.77,1-.5,1.79,1.83,5.29,3.62,10.61,5.41,15.92C114.32,40.22,114.47,40.68,114.69,41.36ZM99.57,18.67c2.6-.46,5.72,1,7.27-1.85a9.07,9.07,0,0,0-.13-9c-1.6-2.66-4.6-1.42-7.14-1.64Z"/><path d="M282.78,41.3h-6c-1.45-4.67-2.93-9.37-4.39-14.07-.06-.18-.12-.4-.18-.58-1-3.16-1-3.16-4.48-2.79V41.27H262V.12c4.26.22,8.56.16,12.73.71,3.37.44,5.32,2.94,6.25,6.16a19.5,19.5,0,0,1,.27,9.33A8.29,8.29,0,0,1,277.5,22c-.84.52-.9,1-.59,1.88,1.85,5.29,3.61,10.61,5.41,15.89C282.47,40.25,282.63,40.74,282.78,41.3Zm-15-22.63c2.69-.43,5.93,1.08,7.35-2.07,1.3-2.88,1.55-6.28-.37-9-1.7-2.41-4.57-1.23-7-1.45Z"/><path d="M30.33,20.87c0-3.81-.06-7.64,0-11.44.09-5,3.68-8.72,8.93-9.37A9.64,9.64,0,0,1,49.5,7a13.4,13.4,0,0,1,.43,3.33c0,7,.06,14,0,21,0,5.66-3,9.18-8.38,10.17A9.59,9.59,0,0,1,30.3,32.27C30.27,28.5,30.33,24.67,30.33,20.87Zm5.78,0c0,3.71,0,7.41,0,11.12A3.64,3.64,0,0,0,40,35.89c2.41,0,4.14-1.39,4.17-3.77q.09-11.26,0-22.57a3.56,3.56,0,0,0-2.29-3.4,4,4,0,0,0-5.78,3.59C36.05,13.48,36.08,17.19,36.11,20.9Z"/><path d="M81.52,12H75.74c0-.77,0-1.54,0-2.28a3.82,3.82,0,0,0-4.11-3.87,3.7,3.7,0,0,0-4,4c0,7.48,0,14.93,0,22.41a3.61,3.61,0,0,0,3.74,3.71c2.32.09,4.11-1.14,4.27-3.34.18-2.75,0-5.53,0-8.44H71.23V18.92H81.52v4.57c0,3.25.09,6.49-.19,9.74a9.76,9.76,0,0,1-19.41-.56c-.15-7.82-.12-15.67,0-23.49C62,4.11,66.22.25,71.44.09a9.53,9.53,0,0,1,9.93,8.44C81.46,9.58,81.46,10.73,81.52,12Z"/><path d="M312.43,12h-5.66c-.16-1.05-.22-2.07-.47-3.06a3.68,3.68,0,0,0-4.14-3.12,3.52,3.52,0,0,0-3.64,3.28,18.77,18.77,0,0,0-.22,3.52,3.78,3.78,0,0,0,2.53,3.71c1.8.74,3.62,1.52,5.44,2.2a8.24,8.24,0,0,1,5.88,8.34,38.07,38.07,0,0,1-.68,8.41c-1,4.39-5,6.74-9.83,6.4s-8.6-3.59-9.25-7.88c-.58-3.93-.58-3.93,3.28-3.93h2.26c0,.71,0,1.3,0,1.89.15,2.53,1.57,4,3.89,4.11,3,.09,4.18-.9,4.58-3.77a6.18,6.18,0,0,0,.09-.78c.53-5.56,0-6.49-5.19-8.59-.56-.25-1.15-.46-1.7-.71-5.38-2.23-7.17-4.82-7.14-10.63A16.43,16.43,0,0,1,293.07,7a9.24,9.24,0,0,1,9.43-7,9.6,9.6,0,0,1,9.37,6.92A27,27,0,0,1,312.43,12Z"/><path d="M131.75.4h4.82c3,13.57,6.09,27.17,9.15,40.9H140c-.49-2.51-1.05-5-1.45-7.51-.18-1.12-.62-1.43-1.7-1.4-2.19.1-4.42,0-6.74,0-.52,2.65-1.08,5.22-1.51,7.82-.16.89-.5,1.2-1.39,1.17-1.43-.06-2.88,0-4.58,0C125.66,27.67,128.69,14.1,131.75.4Zm2.6,12.18a2.17,2.17,0,0,1-.44,0c-.92,4.64-1.85,9.27-2.78,14h6C136.2,21.82,135.27,17.19,134.35,12.58Z"/><path d="M251.16.46v5.6h-11.5V17.9h10v5.81h-10V35.55h11.5v5.69H233.85V.46Z"/><path d="M18.86,12h-5.5c-.09-1-.12-1.88-.28-2.75C12.65,6.86,11.23,5.72,9,5.84,7.06,6,5.91,7.2,5.85,9.64c-.09,4.49,0,9-.06,13.45,0,2.94,0,5.87,0,8.81,0,2.54,1.11,3.86,3.15,4,2.44.15,3.93-1.15,4.21-3.71.09-.77.06-1.52.12-2.38h5.47c.53,4.11-.34,7.63-3.83,10.11s-7.2,2.28-10.79.34A7.92,7.92,0,0,1,.07,32.92C0,25,0,16.94.07,9,.13,3.86,4.21.09,9.44,0a9.18,9.18,0,0,1,9.42,8.69C18.89,9.77,18.86,10.79,18.86,12Z"/><path d="M1.63,49.9a23.4,23.4,0,0,1,4-.31,6.53,6.53,0,0,1,4.48,1.33,4.27,4.27,0,0,1,1.4,3.34,4.69,4.69,0,0,1-1.24,3.41,6.57,6.57,0,0,1-4.88,1.76,7,7,0,0,1-1.66-.15v6.41H1.63Zm2.06,7.7a6.84,6.84,0,0,0,1.71.17c2.49,0,4-1.21,4-3.42s-1.5-3.13-3.78-3.13a8.29,8.29,0,0,0-1.94.17Z"/><path d="M14.84,60.66l-1.67,5H11l5.43-16H19l5.46,16H22.21l-1.71-5Zm5.24-1.61-1.57-4.6c-.36-1.05-.59-2-.83-2.92h-.05c-.23.95-.5,1.92-.8,2.89l-1.57,4.63Z"/><path d="M28.82,49.7v16H26.76v-16Z"/><path d="M32.43,49.92a20.94,20.94,0,0,1,4-.33c2.2,0,3.63.4,4.62,1.3a4,4,0,0,1,1.26,3,4.2,4.2,0,0,1-3,4.08v.07c1.23.42,2,1.56,2.34,3.22a26.38,26.38,0,0,0,1.24,4.39H40.7a21,21,0,0,1-1.06-3.82c-.48-2.2-1.33-3-3.2-3.11H34.49v6.93H32.43Zm2.06,7.28H36.6c2.21,0,3.61-1.21,3.61-3,0-2.06-1.5-3-3.68-3a8.19,8.19,0,0,0-2,.19Z"/><path d="M44.62,64.45A1.4,1.4,0,0,1,46,63a1.5,1.5,0,1,1-1.42,1.49Z"/><path d="M55.12,49.7h2.06V64H64v1.73H55.12Z"/><path d="M74.59,58.2H68.37V64H75.3v1.73h-9v-16h8.63v1.74H68.37v5.05h6.22Z"/><path d="M80.56,60.66l-1.66,5H76.77l5.43-16h2.49l5.45,16h-2.2l-1.71-5Zm5.24-1.61-1.56-4.6c-.36-1.05-.6-2-.83-2.92h0c-.24.95-.5,1.92-.81,2.89L81,59.05Z"/><path d="M92.49,49.92a20.94,20.94,0,0,1,4-.33c2.2,0,3.63.4,4.62,1.3a4,4,0,0,1,1.26,3,4.2,4.2,0,0,1-3,4.08v.07c1.23.42,2,1.56,2.35,3.22a25.7,25.7,0,0,0,1.23,4.39h-2.14a21,21,0,0,1-1.06-3.82c-.48-2.2-1.33-3-3.2-3.11h-2v6.93H92.49Zm2.06,7.28h2.11c2.21,0,3.61-1.21,3.61-3,0-2.06-1.5-3-3.68-3a8.19,8.19,0,0,0-2,.19Z"/><path d="M105.25,65.69v-16h2.25l5.12,8.09A45.84,45.84,0,0,1,115.49,63l.05,0c-.19-2.13-.24-4.08-.24-6.57V49.7h1.94v16h-2.08l-5.08-8.11a52.62,52.62,0,0,1-3-5.34l-.07,0c.12,2,.17,3.93.17,6.59v6.83Z"/><path d="M120.28,64.45A1.4,1.4,0,0,1,121.7,63a1.5,1.5,0,0,1,0,3A1.4,1.4,0,0,1,120.28,64.45Z"/><path d="M143,65a15,15,0,0,1-4.91.87,7.51,7.51,0,0,1-8.21-8.06c0-4.76,3.3-8.25,8.66-8.25a9.71,9.71,0,0,1,4,.74L142,52a8.25,8.25,0,0,0-3.53-.69c-3.89,0-6.43,2.42-6.43,6.43s2.45,6.45,6.17,6.45a6.65,6.65,0,0,0,2.75-.43V59h-3.25V57.29H143Z"/><path d="M146.1,49.92a20.94,20.94,0,0,1,4-.33c2.2,0,3.63.4,4.62,1.3a4,4,0,0,1,1.26,3,4.2,4.2,0,0,1-3,4.08v.07c1.23.42,2,1.56,2.35,3.22a25.7,25.7,0,0,0,1.23,4.39h-2.13a19.91,19.91,0,0,1-1.07-3.82c-.48-2.2-1.33-3-3.2-3.11h-2v6.93H146.1Zm2.06,7.28h2.11c2.21,0,3.61-1.21,3.61-3,0-2.06-1.5-3-3.68-3a8.25,8.25,0,0,0-2,.19Z"/><path d="M172.59,57.53c0,5.5-3.35,8.42-7.43,8.42S158,62.68,158,57.84c0-5.07,3.15-8.39,7.42-8.39S172.59,52.79,172.59,57.53Zm-12.41.26c0,3.42,1.85,6.48,5.1,6.48s5.12-3,5.12-6.65c0-3.17-1.66-6.49-5.09-6.49S160.18,54.28,160.18,57.79Z"/><path d="M177.87,65.69l-4.05-16H176l1.9,8.09c.47,2,.9,4,1.18,5.53h0c.26-1.59.76-3.49,1.3-5.55l2.14-8.07h2.16l1.94,8.12c.45,1.89.88,3.79,1.11,5.47h.05c.33-1.75.78-3.53,1.28-5.52l2.11-8.07h2.11l-4.53,16h-2.15l-2-8.32a47,47,0,0,1-1-5.22h-.05a49.78,49.78,0,0,1-1.23,5.22L180,65.69Z"/><path d="M193.45,64.45A1.4,1.4,0,0,1,194.87,63a1.5,1.5,0,0,1,0,3A1.4,1.4,0,0,1,193.45,64.45Z"/><path d="M206,51.46h-4.86V49.7H213v1.76H208.1V65.69H206Z"/><path d="M227.79,57.53c0,5.5-3.35,8.42-7.43,8.42s-7.18-3.27-7.18-8.11c0-5.07,3.15-8.39,7.42-8.39S227.79,52.79,227.79,57.53Zm-12.41.26c0,3.42,1.85,6.48,5.1,6.48s5.12-3,5.12-6.65c0-3.17-1.66-6.49-5.09-6.49S215.38,54.28,215.38,57.79Z"/><path d="M242.63,65a15,15,0,0,1-4.91.87,7.51,7.51,0,0,1-8.2-8.06c0-4.76,3.29-8.25,8.65-8.25a9.67,9.67,0,0,1,4,.74L241.66,52a8.3,8.3,0,0,0-3.54-.69c-3.89,0-6.42,2.42-6.42,6.43s2.44,6.45,6.16,6.45a6.65,6.65,0,0,0,2.75-.43V59h-3.25V57.29h5.27Z"/><path d="M254.06,58.2h-6.22V64h6.93v1.73h-9v-16h8.63v1.74h-6.57v5.05h6.22Z"/><path d="M260.86,51.46H256V49.7h11.83v1.76H263V65.69h-2.09Z"/><path d="M271.67,49.7v6.69h7.74V49.7h2.08v16h-2.08V58.2h-7.74v7.49h-2.06v-16Z"/><path d="M293.35,58.2h-6.22V64h6.93v1.73h-9v-16h8.63v1.74h-6.57v5.05h6.22Z"/><path d="M296.74,49.92a20.86,20.86,0,0,1,4-.33c2.2,0,3.62.4,4.62,1.3a4,4,0,0,1,1.26,3,4.2,4.2,0,0,1-3,4.08v.07c1.23.42,2,1.56,2.34,3.22a24.48,24.48,0,0,0,1.24,4.39H305A21,21,0,0,1,304,61.87c-.48-2.2-1.33-3-3.21-3.11H298.8v6.93h-2.06Zm2.06,7.28h2.11c2.21,0,3.6-1.21,3.6-3,0-2.06-1.49-3-3.67-3a8.19,8.19,0,0,0-2,.19Z"/><path d="M308.92,64.45A1.41,1.41,0,0,1,310.35,63a1.5,1.5,0,0,1,0,3A1.4,1.4,0,0,1,308.92,64.45Z"/></g></g></svg>