<svg xmlns="http://www.w3.org/2000/svg" xmlns:xlink="http://www.w3.org/1999/xlink" viewBox="0 0 1366.62 286.16" preserveAspectRatio="none"><defs><style>.cls-1{fill:#0693f4;}.cls-2{opacity:0.5;}.cls-3{fill:#056eb7;}.cls-4{opacity:0.6;}.cls-5{fill:#38a9f6;}.cls-6{fill:url(#linear-gradient);}</style><linearGradient id="linear-gradient" x1="-249.57" y1="1846.31" x2="-392.62" y2="1035.02" gradientTransform="translate(340 1760.82) rotate(180)" gradientUnits="userSpaceOnUse"><stop offset="0.11" stop-color="#fff" stop-opacity="0.1"/><stop offset="1" stop-color="#b360f4" stop-opacity="0.6"/></linearGradient></defs><title>footer-background</title><g id="Layer_2" data-name="Layer 2"><g id="Layer_1-2" data-name="Layer 1"><path class="cls-1" d="M1366,286.16V79.38c-46.42-4.39-344-72-390.29-77.94C916.29-6.2,874.21,19,814.35,20.21c-121.69,2.5-160.74,7.52-281.05,25.2-58.95,8.66-117.64,19.3-177.07,24.22a1040.64,1040.64,0,0,1-173.15.1C122.55,64.63,51.6,84.52,0,85.38V286.16Z"/><g class="cls-2"><path class="cls-3" d="M1366,286.16V10.54c0-4.39-572.53,87.7-597.42,91.45-44.23,6.68-239,57.43-678.86-29.64C65,67.45,33.6,61,0,54.07V286.16Z"/></g><g class="cls-4"><path class="cls-5" d="M1366.62,286.16c-.35-23.93-.6-38.81-.6-38.81,0-118.49-795.67-63.85-981.4-113.63L108.14,59.62A419.13,419.13,0,0,0,0,45.67V286.16Z"/></g><path class="cls-6" d="M1310.2,286.16c-39-36.85-95.79-65.18-163.71-79l-31.42.66c-124.48,2.62-248.37-12.57-363.36-44.56L429.89,73.76a1468.88,1468.88,0,0,0-218.83-22.5L0,45.33V286.16Z"/></g></g></svg>
