<?xml version="1.0" encoding="utf-8"?>
<!-- Generator: Adobe Illustrator 22.0.1, SVG Export Plug-In . SVG Version: 6.00 Build 0)  -->
<svg version="1.1" id="Layer_1" xmlns:svg="http://www.w3.org/2000/svg"
	 xmlns="http://www.w3.org/2000/svg" xmlns:xlink="http://www.w3.org/1999/xlink" x="0px" y="0px" viewBox="0 0 400 267"
	 style="enable-background:new 0 0 400 267;" xml:space="preserve">
<style type="text/css">
	.st0{fill-opacity:0;}
	.st1{fill:#313131;}
	.st2{fill:#58585A;}
	.st3{fill:#03A1F1;}
</style>
<title>Layer 1</title>
<path class="st0" d="M0,0v267h400V0H0z M143.4,239.7c-6.3,5.4-1.7,16-7,22c-2.5,2.9-6.9,3.3-10.4,3c-7.7-0.7-15.4-2.1-23-3.7
	c-3.5-0.7-7.8-1.4-10.1-4.4c-5.4-7.1,4.4-17.2-0.8-24.4c-4.2-5.9-15-9.7-21.1-13.6c-2.4-1.5-5-3.5-8-3c-8.9,1.7-15,15.8-25,8.6
	c-7.1-5.1-15-16.6-18.9-24.3c-1.6-3.2-3-7.4-1.1-10.8c3.6-6.4,15-8.5,16.4-16.2c0.8-4.4-2.3-9.9-3.6-14c-1.3-3.9-1.4-8.1-2.6-12
	c-3.8-12.6-23.3-3.1-26.7-15c-0.9-3.3,0-6.7,0.3-10c0.7-7.3,1.3-15,3.4-22c1-3.4,2.2-7,5.7-8.4C18,88.9,26.4,95.2,33,92
	c4.7-2.4,6.9-8.6,9.3-13c2.2-3.8,5.1-7.2,7.1-11c5.5-10.5-13.5-17.7-8.8-28c1.5-3.4,4.7-5.8,7.5-8c6.1-4.8,12.9-10.4,20-13.6
	C83.3,11.5,83.3,36,96,33.9c4.4-0.7,8.6-2.7,13-3.6c4.6-1,10-0.9,13.9-3.9c7.2-5.6,2.2-16.5,7.8-22.9c0.6-0.7,1.3-1.2,2.1-1.6L132,1
	l0.9,0.9c2.5-1.1,5.5-0.8,8.1-0.4c0.7,0.1,1.4,0.2,2.1,0.3c-0.7-0.1-1.4-0.4-2.1-0.7c2,0.1,3.2,0.2,5,1c-0.3,0-0.6,0-0.8,0
	c6.6,0.8,13.3,1.6,19.8,3.1c3.4,0.7,7.9,1.6,9.4,5.1c3.4,8.1-2.2,15.6-7.4,20.9c-7.8,7.8-18.8,17.4-20,29c-15.5-1.2-29.5-0.6-44,6
	c-8.8,4-16.2,10.1-23,17c-6.4,6.4-11,13.6-14.4,22c-4.8,11.8-7.1,25.2-5.3,38c6.1,42.9,50.4,71.7,91.7,61c-2.6,14.1,4.5,19.3,12,30
	C158,235.6,148.2,235.6,143.4,239.7z M398.9,145c-0.3,3.9-1.4,7.5-5,9.6c-6.3,3.7-15.8-1.6-21.4,3c-4.3,3.6-5.2,11.4-7.1,16.4
	c-1.2,3.4-3.4,6.5-4.3,10c-2.1,8.6,11.5,13.6,14.1,21c1.4,4.2-1.5,7.9-3.9,11c-5.7,7.3-14,17.1-22.3,21.4
	c-10.4,5.4-14.9-9.1-23.2-11.8c-2.6-0.8-5.5,0.5-7.8,1.5c-6.2,2.6-13.1,5.2-19,8.4c-10.2,5.6-0.8,18.6-6.8,26.1
	c-2.3,2.9-6.8,3.6-10.3,4.1c-8.1,1.1-16.9,0.5-25,0.3c-3.9-0.1-7.8-0.7-10.3-4.1c-6.3-8.9,3.9-20.9-9.7-25.7c-5.1-1.8-10-3.3-15-5.6
	c-2.7-1.2-5.9-3.4-9-2.7c-9.6,2.2-13.9,20.8-26,12.5c-7.7-5.3-16-12.9-21.6-20.5c-2-2.7-4.5-6.4-3.8-10c1.8-8.8,16.6-12.8,12.3-23
	c-2.2-5-4.7-9.9-6.7-15c-1.4-3.5-1.9-7-5.2-9.3c-8.7-5.9-23.5,4.4-26.5-9.7c-1.9-9-1.7-18.8-1.5-28c0.1-3.9,0.5-8.7,4.1-11
	c8.8-5.6,20.9,3,25.7-9c2.1-5.3,3.6-10.8,5.9-16c1.4-3.1,3.4-6.6,2-10c-2.9-7-17.1-11.9-13.9-21c1.1-3,3.6-5.6,5.6-8
	c5.6-6.7,17.4-23.2,27.6-20.6c7.2,1.9,10.6,12.4,18,12.9c3.1,0.2,6.3-2,9-3.3c5.2-2.6,10.9-4.2,16-6.9c9.6-5.1,1.9-17.1,6.3-25
	c3.9-7,15.1-4.8,21.7-5.7l0,0c6.5-0.9,21.3-2.1,25,4.6c4.7,8.6-2.9,21.4,9,25.5c5.4,1.9,10.7,3.7,16,5.9c2.8,1.2,5.9,2.9,9,1.9
	c9.8-3.1,13.4-20.2,26-11.5c7.3,5,15.9,13,21.1,20.3c2,2.8,4.2,6.3,3.4,9.9c-1.6,7.5-12,10.4-13.1,18c-0.4,3.1,1.6,6.3,2.8,9
	c2.6,5.7,5.7,19,11.9,21.4c7,2.7,16.4-4.3,22.3,2.8c2.3,2.7,2.9,6.4,3.3,9.9C399.7,127.3,399.5,136.7,398.9,145z"/>
<path class="st1" d="M152,204c-41.3,10.7-85.6-18.1-91.7-61c-1.8-12.8,0.5-26.2,5.3-38c3.4-8.4,8-15.6,14.4-22
	c6.8-6.9,14.2-12.9,23-17c14.5-6.6,28.5-7.3,44-6c1.2-11.6,12.2-21.1,20-29c5.2-5.2,10.8-12.8,7.4-20.9c-1.5-3.6-6-4.4-9.4-5.1
	c-6.5-1.4-13.2-2.2-19.8-3.1c-0.7,0-1.4-0.1-2-0.3c-0.7-0.1-1.4-0.2-2.1-0.3c-2.6-0.3-5.7-0.7-8.1,0.4l0,0.3l-0.1-0.1
	c-0.8,0.4-1.5,0.9-2.1,1.6c-5.6,6.4-0.6,17.3-7.8,22.9c-3.9,3-9.3,3-13.9,3.9c-4.4,0.9-8.6,2.8-13,3.6C83.3,36,83.3,11.5,68,18.4
	c-7.1,3.2-13.9,8.8-20,13.6c-2.8,2.2-6,4.6-7.5,8c-4.6,10.3,14.4,17.5,8.8,28c-2,3.8-4.9,7.2-7.1,11c-2.5,4.3-4.6,10.6-9.3,13
	c-6.5,3.3-15-3.1-21.9-0.4c-3.6,1.4-4.8,5-5.7,8.4c-2,7-2.7,14.7-3.4,22c-0.3,3.3-1.3,6.7-0.3,10c3.4,11.9,22.9,2.4,26.7,15
	c1.2,3.9,1.4,8.1,2.6,12c1.3,4.1,4.4,9.6,3.6,14c-1.4,7.7-12.9,9.8-16.4,16.2c-1.9,3.4-0.5,7.6,1.1,10.8
	c3.9,7.7,11.8,19.3,18.9,24.3c10,7.2,16-6.9,25-8.6c3-0.6,5.6,1.4,8,3c6.1,3.9,16.9,7.6,21.1,13.6c5.1,7.2-4.7,17.3,0.8,24.4
	c2.3,3,6.7,3.7,10.1,4.4c7.6,1.6,15.3,3,23,3.7c3.6,0.3,7.9-0.1,10.4-3c5.2-6,0.7-16.6,7-22c4.8-4.1,14.6-4.1,20.6-5.7
	C156.5,223.3,149.4,218.1,152,204z"/>
<path class="st2" d="M119.3-35c-1.8-0.8-3-0.9-5-1c0.8,0.3,1.5,0.6,2.1,0.7c0.7,0.1,1.4,0.2,2,0.3C118.7-35,119-35,119.3-35z"/>
<path class="st2" d="M116.4-35.3c0.6,0.1,1.3,0.2,2,0.3C117.8-35.2,117.1-35.2,116.4-35.3z"/>
<path class="st3" d="M395.4,109.1c-5.9-7-15.3,0-22.3-2.8c-6.2-2.4-9.3-15.7-11.9-21.4c-1.2-2.7-3.2-5.9-2.8-9
	c1.1-7.6,11.5-10.5,13.1-18c0.8-3.6-1.4-7.1-3.4-9.9c-5.2-7.2-13.8-15.3-21.1-20.3c-12.6-8.7-16.2,8.5-26,11.5c-3.1,1-6.2-0.8-9-1.9
	c-5.3-2.2-10.6-4-16-5.9c-11.9-4.1-4.3-16.9-9-25.5c-3.7-6.8-18.5-5.5-25-4.6l0,0C255.4,2.2,244.2,0,240.3,7
	c-4.4,7.9,3.2,19.9-6.3,25c-5.1,2.7-10.8,4.3-16,6.9c-2.7,1.3-5.9,3.5-9,3.3c-7.4-0.5-10.8-11-18-12.9
	c-10.2-2.6-21.9,13.9-27.6,20.6c-2,2.4-4.5,5-5.6,8c-3.3,9.1,10.9,14,13.9,21c1.4,3.4-0.6,6.9-2,10c-2.3,5.2-3.8,10.7-5.9,16
	c-4.8,12-17,3.4-25.7,9c-3.7,2.3-4,7.1-4.1,11c-0.2,9.2-0.4,19,1.5,28c2.9,14.1,17.8,3.9,26.5,9.7c3.3,2.2,3.9,5.8,5.2,9.3
	c2,5.1,4.5,10,6.7,15c4.4,10.2-10.5,14.2-12.3,23c-0.7,3.6,1.8,7.2,3.8,10c5.5,7.6,13.8,15.2,21.6,20.5c12.1,8.3,16.4-10.3,26-12.5
	c3.1-0.7,6.3,1.4,9,2.7c5,2.3,9.9,3.8,15,5.6c13.6,4.8,3.4,16.8,9.7,25.7c2.4,3.4,6.4,4,10.3,4.1c8.1,0.2,16.9,0.8,25-0.3
	c3.5-0.5,7.9-1.2,10.3-4.1c6-7.5-3.4-20.5,6.8-26.1c5.9-3.2,12.8-5.8,19-8.4c2.3-1,5.3-2.3,7.8-1.5c8.3,2.6,12.8,17.1,23.2,11.8
	c8.3-4.3,16.6-14.1,22.3-21.4c2.4-3.1,5.3-6.8,3.9-11c-2.5-7.4-16.2-12.4-14.1-21c0.9-3.5,3.1-6.6,4.3-10c1.8-5,2.8-12.8,7.1-16.4
	c5.6-4.6,15.1,0.6,21.4-3c3.6-2.1,4.7-5.7,5-9.6c0.6-8.3,0.8-17.7-0.2-26C398.3,115.6,397.7,111.9,395.4,109.1z M326.1,177
	c-5.6,7.6-12.1,13.9-20.1,18.9c-8.9,5.6-19.6,9.2-30,10.6c-29.8,4.1-60.8-11.7-74.7-38.6c-12.8-24.8-10.3-56.9,7-79
	c5.5-7.1,12-12.9,19.7-17.5c8.4-5,17.3-8.6,27-10c21.7-3.1,44.6,2.9,61,17.7C343.3,103.8,347.9,147.3,326.1,177z"/>
<path class="st3" d="M259,95.4c-25.7,4.1-38.6,34.4-26.7,56.6c8.4,15.7,25.7,22.7,42.7,19.9c27.6-4.6,41.5-38.1,25.2-60.9
	C290.8,97.9,274.6,92.9,259,95.4z"/>
</svg>
