<?xml version="1.0" standalone="yes"?>
<svg width="400" height="267" xmlns="http://www.w3.org/2000/svg" xmlns:svg="http://www.w3.org/2000/svg">
 <g>
  <title>Layer 1</title>
  <path opacity="0" fill-opacity="0" id="svg_1" fill="#000000" d="m0,0l0,267l400,0l0,-267l-400,0z"/>
  <path id="svg_2" fill="#58585a" d="m132,1l1,1l-1,-1z"/>
  <path id="svg_3" fill="#313131" d="m164,234c-7.54,-10.713 -14.61,-15.939 -12,-30c-41.304,10.686 -85.5717,-18.108 -91.6998,-61c-1.8242,-12.767 0.5056,-26.155 5.304,-38c3.3999,-8.393 8.026,-15.5574 14.3997,-22c6.786,-6.8594 14.1507,-12.9423 22.9961,-16.9715c14.477,-6.5941 28.471,-7.254 44,-6.0285c1.186,-11.583 12.231,-21.1467 20.014,-28.9853c5.203,-5.2403 10.807,-12.7875 7.383,-20.8812c-1.504,-3.55315 -6.028,-4.38265 -9.397,-5.11885c-7.9,-1.72632 -15.994,-2.53964 -24,-3.59027c-3.466,-0.45487 -7.695,-0.90534 -10.272,2.00927c-5.638,6.37433 -0.64,17.34825 -7.837,22.91355c-3.898,3.0146 -9.26,2.9787 -13.891,3.9383c-4.382,0.9081 -8.602,2.8192 -13,3.5664c-12.7243,2.1618 -12.6644,-22.3506 -28,-15.4352c-7.1039,3.2034 -13.9107,8.7948 -19.9992,13.598c-2.816,2.2215 -5.9927,4.6202 -7.5008,7.9892c-4.6305,10.344 14.3608,17.4595 8.8472,27.9961c-2.0064,3.8343 -4.9086,7.2263 -7.0602,11c-2.4567,4.3089 -4.6175,10.5997 -9.3271,12.9576c-6.5346,3.2714 -14.9896,-3.0744 -21.9159,-0.3542c-3.58755,1.4089 -4.76145,4.9984 -5.74539,8.3966c-2.03443,7.026 -2.69833,14.734 -3.37346,22c-0.30519,3.285 -1.28279,6.715 -0.34876,9.981c3.39545,11.875 22.87331,2.38 26.70371,15.023c1.187,3.918 1.3525,8.071 2.6057,11.996c1.3019,4.078 4.3834,9.623 3.5764,13.985c-1.4229,7.692 -12.8634,9.75 -16.4337,16.189c-1.8777,3.386 -0.5195,7.641 1.1104,10.826c3.9438,7.707 11.8352,19.281 18.9005,24.347c10.0092,7.177 16.0393,-6.949 24.9606,-8.65c3.0026,-0.573 5.6163,1.449 8,2.963c6.1179,3.887 16.87,7.626 21.1026,13.553c5.1174,7.166 -4.6797,17.285 0.7562,24.393c2.3042,3.012 6.6697,3.666 10.1412,4.391c7.557,1.577 15.308,2.975 23,3.703c3.575,0.338 7.921,-0.121 10.436,-3.003c5.24,-6.006 0.702,-16.618 6.958,-21.994c4.801,-4.125 14.588,-4.145 20.606,-5.703z"/>
  <path id="svg_4" fill="#58585a" d="m141,1c1.769,0.77893 3.036,0.91241 5,1c-1.769,-0.77896 -3.036,-0.91241 -5,-1z"/>
  <path id="svg_5" fill="#03a1f1" d="m262,1.42438c-6.597,0.86618 -17.78,-1.29776 -21.682,5.70834c-4.409,7.91538 3.237,19.91598 -6.337,25.04478c-5.127,2.7462 -10.764,4.3285 -15.981,6.9035c-2.675,1.3204 -5.881,3.4966 -9,3.2716c-7.423,-0.5356 -10.795,-11.0448 -18,-12.9151c-10.17,-2.64 -21.943,13.8911 -27.561,20.5625c-2.011,2.3884 -4.484,5.0163 -5.563,8c-3.287,9.0909 10.931,14.0461 13.852,21.0008c1.445,3.4425 -0.562,6.9007 -1.958,9.9992c-2.343,5.2015 -3.77,10.7123 -5.904,15.996c-4.828,11.954 -16.955,3.425 -25.722,8.992c-3.658,2.324 -4.031,7.086 -4.129,11.012c-0.23,9.199 -0.423,18.951 1.464,28c2.945,14.122 17.792,3.876 26.462,9.742c3.32,2.246 3.863,5.785 5.229,9.258c2.012,5.115 4.545,9.964 6.7,15c4.374,10.226 -10.477,14.161 -12.251,23c-0.724,3.605 1.808,7.213 3.821,9.961c5.53,7.55 13.841,15.202 21.56,20.48c12.125,8.291 16.366,-10.337 26.015,-12.49c3.079,-0.687 6.306,1.445 8.985,2.675c4.953,2.273 9.886,3.775 15,5.568c13.61,4.771 3.434,16.803 9.742,25.673c2.413,3.392 6.388,4.016 10.258,4.118c8.13,0.216 16.932,0.787 25,-0.274c3.501,-0.461 7.91,-1.178 10.258,-4.105c6.001,-7.484 -3.366,-20.486 6.786,-26.052c5.87,-3.219 12.778,-5.799 18.956,-8.384c2.34,-0.979 5.261,-2.335 7.83,-1.516c8.288,2.639 12.789,17.145 23.17,11.773c8.309,-4.301 16.631,-14.133 22.33,-21.427c2.423,-3.101 5.338,-6.84 3.909,-11c-2.541,-7.396 -16.213,-12.351 -14.075,-21c0.863,-3.494 3.058,-6.627 4.292,-10c1.836,-5.021 2.763,-12.807 7.077,-16.397c5.578,-4.641 15.149,0.62 21.409,-3.037c3.56,-2.079 4.674,-5.675 4.968,-9.566c0.627,-8.307 0.833,-17.733 -0.196,-26c-0.425,-3.412 -0.992,-7.141 -3.287,-9.852c-5.947,-7.027 -15.287,-0.006 -22.333,-2.755c-6.179,-2.411 -9.318,-15.7344 -11.873,-21.393c-1.216,-2.6942 -3.244,-5.9226 -2.795,-9c1.102,-7.5624 11.498,-10.4832 13.096,-18c0.759,-3.5663 -1.415,-7.1315 -3.412,-9.9066c-5.216,-7.2454 -13.788,-15.2685 -21.11,-20.2894c-12.622,-8.6552 -16.215,8.4874 -26.001,11.5494c-3.097,0.969 -6.215,-0.7761 -8.999,-1.9298c-5.284,-2.1894 -10.607,-4.0186 -15.999,-5.8881c-11.895,-4.1239 -4.306,-16.8544 -9.029,-25.47688c-3.715,-6.78295 -18.492,-5.48507 -24.972,-4.63424z"/>
  <path id="svg_7" fill="#fdfefe" d="m255,61.4282c-9.714,1.3948 -18.598,5.0129 -27,10.0247c-7.713,4.6011 -14.191,10.4901 -19.711,17.5471c-17.248,22.051 -19.808,54.208 -6.966,79c13.898,26.83 44.851,42.646 74.677,38.575c10.425,-1.423 21.067,-5.055 30,-10.64c8.016,-5.011 14.552,-11.341 20.115,-18.935c21.745,-29.68 17.167,-73.18 -10.119,-97.8264c-16.424,-14.8361 -39.251,-20.8676 -60.996,-17.7454z"/>
  <path id="svg_9" fill="#03a1f1" d="m259,95.4398c-25.657,4.131 -38.568,34.4132 -26.676,56.5602c8.421,15.682 25.718,22.655 42.676,19.855c27.564,-4.552 41.473,-38.147 25.211,-60.855c-9.406,-13.1355 -25.626,-18.0695 -41.211,-15.5602z"/>
 </g>
</svg>
