<?xml version="1.0" encoding="utf-8"?>
<!-- Generator: Adobe Illustrator 22.0.1, SVG Export Plug-In . SVG Version: 6.00 Build 0)  -->
<svg version="1.1" id="Layer_1" xmlns:svg="http://www.w3.org/2000/svg"
	 xmlns="http://www.w3.org/2000/svg" xmlns:xlink="http://www.w3.org/1999/xlink" x="0px" y="0px" viewBox="0 0 1829.8 710.6"
	 style="enable-background:new 0 0 1829.8 710.6;" xml:space="preserve">

<g>
	<path class="st0 draw-me miterlimit" d="M303.6,464c-72.3,18.7-149.8-31.7-160.5-106.7c-3.1-22.4,0.9-45.8,9.3-66.5c5.9-14.7,14-27.3,25.2-38.5
		c11.9-12.1,24.8-22.6,40.2-29.7c25.4-11.5,49.9-12.8,77-10.5c2.1-20.3,21.3-36.9,35-50.7c9.1-9.1,18.9-22.4,12.9-36.6
		c-2.6-6.3-10.5-7.7-16.4-8.9c-11.4-2.4-23.1-3.8-34.6-5.4c-1.2,0-2.4-0.2-3.5-0.5c-1.2-0.2-2.4-0.3-3.7-0.5
		c-4.5-0.5-10-1.2-14.2,0.7v0.5l-0.2-0.2c-1.4,0.7-2.6,1.6-3.7,2.8c-9.8,11.2-1,30.3-13.6,40.1c-6.8,5.2-16.3,5.2-24.3,6.8
		c-7.7,1.6-15,4.9-22.7,6.3c-22.4,3.7-22.4-39.2-49.2-27.1c-12.4,5.6-24.3,15.4-35,23.8c-4.9,3.8-10.5,8-13.1,14
		c-8,18,25.2,30.6,15.4,49c-3.5,6.6-8.6,12.6-12.4,19.2c-4.4,7.5-8,18.5-16.3,22.7c-11.4,5.8-26.2-5.4-38.3-0.7
		c-6.3,2.4-8.4,8.7-10,14.7c-3.5,12.2-4.7,25.7-5.9,38.5c-0.5,5.8-2.3,11.7-0.5,17.5c5.9,20.8,40.1,4.2,46.7,26.2
		c2.1,6.8,2.4,14.2,4.5,21c2.3,7.2,7.7,16.8,6.3,24.5c-2.4,13.5-22.6,17.1-28.7,28.3c-3.3,5.9-0.9,13.3,1.9,18.9
		c6.8,13.5,20.6,33.8,33.1,42.5c17.5,12.6,28-12.1,43.7-15c5.2-1,9.8,2.4,14,5.2c10.7,6.8,29.6,13.3,36.9,23.8
		c8.9,12.6-8.2,30.3,1.4,42.7c4,5.2,11.7,6.5,17.7,7.7c13.3,2.8,26.8,5.2,40.2,6.5c6.3,0.5,13.8-0.2,18.2-5.2
		c9.1-10.5,1.2-29,12.2-38.5c8.4-7.2,25.5-7.2,36-10C311.5,497.8,299.1,488.7,303.6,464z"/>

	<path class="st2 draw-me miterlimit" d="M729.5,297.9c-10.3-12.2-26.8,0-39-4.9c-10.8-4.2-16.3-27.5-20.8-37.4c-2.1-4.7-5.6-10.3-4.9-15.7
		c1.9-13.3,20.1-18.4,22.9-31.5c1.4-6.3-2.4-12.4-5.9-17.3c-9.1-12.6-24.1-26.8-36.9-35.5c-22-15.2-28.3,14.9-45.5,20.1
		c-5.4,1.7-10.8-1.4-15.7-3.3c-9.3-3.8-18.5-7-28-10.3c-20.8-7.2-7.5-29.6-15.7-44.6c-6.5-11.9-32.4-9.6-43.7-8l0,0
		c-11.5,1.6-31.1-2.3-38,10c-7.7,13.8,5.6,34.8-11,43.7c-8.9,4.7-18.9,7.5-28,12.1c-4.7,2.3-10.3,6.1-15.7,5.8
		c-12.9-0.9-18.9-19.2-31.5-22.6c-17.8-4.5-38.3,24.3-48.3,36c-3.5,4.2-7.9,8.7-9.8,14c-5.8,15.9,19.1,24.5,24.3,36.7
		c2.4,5.9-1,12.1-3.5,17.5c-4,9.1-6.6,18.7-10.3,28c-8.4,21-29.7,5.9-45,15.7c-6.5,4-7,12.4-7.2,19.2c-0.3,16.1-0.7,33.2,2.6,49
		c5.1,24.7,31.1,6.8,46.4,17c5.8,3.8,6.8,10.1,9.1,16.3c3.5,8.9,7.9,17.5,11.7,26.2c7.7,17.8-18.4,24.8-21.5,40.2
		c-1.2,6.3,3.1,12.6,6.6,17.5c9.6,13.3,24.1,26.6,37.8,35.9c21.2,14.5,28.7-18,45.5-21.9c5.4-1.2,11,2.4,15.7,4.7
		c8.7,4,17.3,6.6,26.2,9.8c23.8,8.4,5.9,29.4,17,45c4.2,5.9,11.2,7,18,7.2c14.2,0.3,29.6,1.4,43.7-0.5c6.1-0.9,13.8-2.1,18-7.2
		c10.5-13.1-5.9-35.9,11.9-45.7c10.3-5.6,22.4-10.1,33.2-14.7c4-1.7,9.3-4,13.6-2.6c14.5,4.5,22.4,29.9,40.6,20.6
		c14.5-7.5,29-24.7,39-37.4c4.2-5.4,9.3-11.9,6.8-19.2c-4.2-13-28.2-21.8-24.5-36.8c1.6-6.1,5.4-11.5,7.5-17.5
		c3.1-8.7,4.9-22.4,12.4-28.7c9.8-8,26.4,1,37.4-5.2c6.3-3.7,8.2-10,8.7-16.8c1-14.5,1.4-31-0.3-45.5
		C734.6,309.3,733.6,302.8,729.5,297.9z M608.3,416.7c-9.8,13.3-21.2,24.3-35.2,33.1c-15.6,9.8-34.3,16.1-52.5,18.5
		c-52.1,7.2-106.4-20.5-130.7-67.5c-22.4-43.4-18-99.6,12.2-138.2c9.6-12.4,21-22.6,34.5-30.6c14.7-8.7,30.3-15,47.2-17.5
		c38-5.4,78,5.1,106.7,31C638.4,288.7,646.4,364.8,608.3,416.7z"/>

	<path class="center-circle" d="M490.8,274c-45,7.2-67.5,60.2-46.7,99c14.7,27.5,45,39.7,74.7,34.8c48.3-8,72.6-66.7,44.1-106.6
		C546.5,278.3,518.1,269.6,490.8,274z"/>
</g>

<g class="title miterlimit">
	<path class="st3" d="M1345.5,319.7c-4,12.1-8,24.2-12,36.3c-1.8,5.4-3.8,10.7-5.2,16.1c-1,3.8-3.6,3.1-6.1,3.3
		c-2.7,0.2-4.6-0.2-5.6-3.4c-5.1-16.2-10.5-32.3-15.8-48.4c-0.4-1.4-1-2.7-2.2-3.9c0,26.2,0,52.4,0,79c-6.3,0-12.2,0-18.5,0
		c0-43.7,0-87.6,0-132.3c5.2,0,10.6-0.3,16,0.2c1.2,0.1,2.6,2.6,3.2,4.3c7.1,20.1,14,40.2,21,60.3c0.5,1.6,1.1,3.1,2.2,6
		c1.1-2.7,1.7-4.2,2.3-5.8c7-20.3,14.1-40.5,20.9-60.8c1.1-3.2,2.4-4.6,6-4.3c4.3,0.4,8.6,0.1,13.4,0.1c0,44.1,0,88,0,132.3
		c-5.8,0-11.8,0-18.2,0c0-26.4,0-52.6,0-78.9C1346.4,319.9,1345.9,319.8,1345.5,319.7z"/>
	<path class="st3" d="M1405.9,266.5c5.4,0,10.5-0.3,15.6,0.2c1.4,0.1,3.1,2.6,3.7,4.3c7.2,20.2,14.2,40.5,21.2,60.7
		c0.5,1.4,1,2.8,2,5.5c1-2.6,1.7-4.1,2.3-5.7c7-20.3,14.1-40.5,20.9-60.8c1.1-3.2,2.4-4.6,5.9-4.3c4.4,0.4,8.9,0.1,13.6,0.1
		c0,44.4,0,88.3,0,132.5c-6.2,0-12.1,0-18.4,0c0-26.5,0-52.8,0-79c-0.3-0.1-0.6-0.2-1-0.3c-0.5,1.2-1.1,2.4-1.5,3.6
		c-5.3,15.9-10.7,31.9-15.8,47.9c-1,3.2-2.4,4.5-5.9,4.4c-3.4-0.1-5.2-0.7-6.4-4.4c-4.9-15.9-10.3-31.6-15.5-47.4
		c-0.4-1.4-1-2.7-2.2-3.9c0,26.2,0,52.4,0,79c-6.4,0-12.4,0-18.7,0C1405.9,354.8,1405.9,310.9,1405.9,266.5z"/>
	<path class="st3" d="M1147.6,399.2c-6.8,0-13,0-19.6,0c-3.7-11.9-7.5-23.9-11.2-35.9c-1.2-3.8-2.3-7.6-3.5-11.4
		c-3.2-10.1-3.2-10.1-14.5-9.3c0,18.7,0,37.4,0,56.4c-6.5,0-12.4,0-18.7,0c0-43.9,0-87.8,0-132.4c14.3,0.7,28.8-1.9,43,2
		c8.8,2.4,14.5,8.5,17.5,17.1c3.8,11.1,4.1,22.5,1.4,33.9c-1.7,7.3-5.5,13.3-11.9,17.2c-2.7,1.6-2.5,3.3-1.6,5.8
		c5.9,17.1,11.7,34.3,17.5,51.5C1146.4,395.5,1146.9,397,1147.6,399.2z M1098.7,325.8c8.4-1.5,18.5,3.4,23.5-6
		c4.9-9.2,5.1-20.1-0.4-29.2c-5.2-8.6-14.9-4.6-23.1-5.3C1098.7,298.8,1098.7,311.7,1098.7,325.8z"/>
	<path class="st3" d="M1691.4,399c-6.6,0-12.9,0-19.5,0c-4.7-15.1-9.5-30.3-14.2-45.5c-0.2-0.6-0.4-1.3-0.6-1.9
		c-3.2-10.2-3.2-10.2-14.5-9c0,18.6,0,37.3,0,56.3c-6.5,0-12.4,0-18.6,0c0-44.1,0-87.9,0-133.1c13.8,0.7,27.7,0.5,41.2,2.3
		c10.9,1.4,17.2,9.5,20.2,19.9c2.8,9.9,3,20.1,0.9,30.2c-1.6,7.6-5.2,14.1-12,18.3c-2.7,1.7-2.9,3.3-1.9,6.1
		c6,17.1,11.7,34.3,17.5,51.4C1690.4,395.6,1690.9,397.2,1691.4,399z M1642.7,325.8c8.7-1.4,19.2,3.5,23.8-6.7
		c4.2-9.3,5-20.3-1.2-29.1c-5.5-7.8-14.8-4-22.6-4.7C1642.7,299.1,1642.7,312,1642.7,325.8z"/>
	<path class="st3" d="M874.7,332.9c0-12.3-0.2-24.7,0-37c0.3-16.3,11.9-28.2,28.9-30.3c14.6-1.7,29.2,8,33.1,22.4
		c1,3.5,1.3,7.2,1.4,10.8c0.1,22.7,0.2,45.3,0,68c-0.1,18.3-9.7,29.7-27.1,32.9c-18.6,3.3-36-10.8-36.4-29.9
		C874.5,357.6,874.7,345.2,874.7,332.9z M893.4,333c0,12-0.1,24,0.1,36c0.1,7.8,5,12.4,12.5,12.5c7.8,0.1,13.4-4.5,13.5-12.2
		c0.2-24.3,0.2-48.6,0-73c0-5-2.6-8.9-7.4-11c-9.1-4-18.5,1.6-18.7,11.6C893.2,309,893.3,321,893.4,333z"/>
	<path class="st3" d="M1040.3,304.2c-6.6,0-12.3,0-18.7,0c0-2.5,0.1-5,0-7.4c-0.5-7.8-5.5-12.6-13.3-12.5c-7.8,0-12.8,4.7-12.9,12.8
		c-0.1,24.2-0.1,48.3,0.1,72.5c0.1,7.2,5,11.7,12.1,12c7.5,0.3,13.3-3.7,13.8-10.8c0.6-8.9,0.1-17.9,0.1-27.3c-5,0-9.6,0-14.5,0
		c0-5.7,0-10.9,0-16.9c5.4,0,10.8,0,16.3,0s10.9,0,17,0c0,5.2,0,10,0,14.8c-0.1,10.5,0.3,21-0.6,31.5c-1.4,16.3-15.3,27.9-31.9,27.5
		c-16.8-0.4-30.6-12.9-30.9-29.3c-0.5-25.3-0.4-50.7,0-76c0.3-16.4,13.9-28.9,30.8-29.4c16.5-0.5,30.3,11.1,32.1,27.3
		C1040.1,296.4,1040.1,300.1,1040.3,304.2z"/>
	<path class="st3" d="M1787.3,304.2c-6.9,0-12.5,0-18.3,0c-0.5-3.4-0.7-6.7-1.5-9.9c-1.7-7.1-6.1-10.3-13.4-10.1
		c-6.5,0.2-10.5,3.6-11.8,10.6c-0.7,3.7-0.7,7.6-0.7,11.4c0,5.8,2.9,9.8,8.2,12c5.8,2.4,11.7,4.9,17.6,7.1c12.6,4.6,19,13.8,19,27
		c-0.1,9.1-0.1,18.4-2.2,27.2c-3.3,14.2-16.1,21.8-31.8,20.7c-15.5-1.1-27.8-11.6-29.9-25.5c-1.9-12.7-1.9-12.7,10.6-12.7
		c2.2,0,4.3,0,7.3,0c0,2.3-0.1,4.2,0,6.1c0.5,8.2,5.1,13.1,12.6,13.3c9.6,0.3,13.5-2.9,14.8-12.2c0.1-0.8,0.3-1.6,0.3-2.5
		c1.7-18-0.1-21-16.8-27.8c-1.8-0.8-3.7-1.5-5.5-2.3c-17.4-7.2-23.2-15.6-23.1-34.4c0-4.8,0.7-9.7,2-14.3
		c3.9-14.2,15.5-22.6,30.5-22.5c14.2,0.1,26.8,9.1,30.3,22.4C1787,292.9,1786.8,298.4,1787.3,304.2z"/>
	<path class="st3" d="M1202.8,266.7c5.2,0,10,0,15.6,0c9.8,43.9,19.7,87.9,29.6,132.3c-6.5,0-12.2,0-18.5,0
		c-1.6-8.1-3.4-16.2-4.7-24.3c-0.6-3.6-2-4.6-5.5-4.5c-7.1,0.3-14.3,0.1-21.8,0.1c-1.7,8.6-3.5,16.9-4.9,25.3
		c-0.5,2.9-1.6,3.9-4.5,3.8c-4.6-0.2-9.3-0.1-14.8-0.1C1183.1,354.9,1192.9,311,1202.8,266.7z M1211.2,306.1c-0.5,0-0.9,0-1.4-0.1
		c-3,15-6,30-9,45.2c6.8,0,12.9,0,19.4,0C1217.2,336,1214.2,321,1211.2,306.1z"/>
	<path class="st3" d="M1589.1,266.9c0,6,0,11.8,0,18.1c-12.4,0-24.6,0-37.2,0c0,12.9,0,25.3,0,38.3c10.6,0,21.3,0,32.3,0
		c0,6.5,0,12.4,0,18.8c-10.7,0-21.3,0-32.3,0c0,12.8,0,25.2,0,38.3c12.2,0,24.6,0,37.2,0c0,6.5,0,12.2,0,18.4c-18.5,0-37.1,0-56,0
		c0-43.7,0-87.6,0-131.9C1551.4,266.9,1570,266.9,1589.1,266.9z"/>
	<path class="st3" d="M837.6,304.1c-6.3,0-11.9,0-17.8,0c-0.3-3.1-0.4-6.1-0.9-8.9c-1.4-7.6-6-11.3-13.1-10.9
		c-6.4,0.4-10.1,4.4-10.3,12.3c-0.3,14.5-0.1,29-0.2,43.5c0,9.5-0.1,19,0.1,28.5c0.1,8.2,3.6,12.5,10.2,12.9
		c7.9,0.5,12.7-3.7,13.6-12c0.3-2.5,0.2-4.9,0.4-7.7c6,0,11.7,0,17.7,0c1.7,13.3-1.1,24.7-12.4,32.7c-11.3,7.9-23.3,7.4-34.9,1.1
		c-9.2-5-13.1-13.7-13.2-23.7c-0.3-25.8-0.3-51.7,0-77.5c0.2-16.5,13.4-28.7,30.3-28.9c16.4-0.2,29.6,12,30.5,28.1
		C837.7,297,837.6,300.3,837.6,304.1z"/>
</g>
</svg>
